/* Created with The GIMP */
#define font_5x8_width 8
#define font_5x8_height 1024
static unsigned char font_5x8_bits[] = {
   0x1e, 0x01, 0x06, 0x01, 0x1e, 0x00, 0x1e, 0x01, 0x06, 0x01, 0x1e, 0x00,
   0x1e, 0x01, 0x1e, 0x01, 0x1e, 0x00, 0x01, 0x00, 0x1f, 0x08, 0x04, 0x08,
   0x1f, 0x00, 0x11, 0x1f, 0x11, 0x00, 0x1f, 0x01, 0x01, 0x00, 0x1f, 0x04,
   0x0a, 0x11, 0x00, 0x01, 0x00, 0x0e, 0x11, 0x11, 0x00, 0x0e, 0x11, 0x11,
   0x0e, 0x00, 0x1f, 0x08, 0x04, 0x08, 0x1f, 0x00, 0x44, 0x41, 0x4e, 0x20,
   0x42, 0x4f, 0x52, 0x4e, 0x53, 0x54, 0x45, 0x49, 0x4e, 0x21, 0x21, 0x00,
   0x66, 0x6e, 0x6f, 0x72, 0x64, 0x00, 0x00, 0x00, 0x0f, 0x0f, 0x0f, 0x0f,
   0x0f, 0x0f, 0x0f, 0x00, 0x0f, 0x0f, 0x0f, 0x0f, 0x0f, 0x0f, 0x0f, 0x00,
   0x0f, 0x0f, 0x0f, 0x0f, 0x0f, 0x0f, 0x0f, 0x00, 0x0f, 0x0f, 0x0f, 0x0f,
   0x0f, 0x0f, 0x0f, 0x00, 0x0f, 0x0f, 0x0f, 0x0f, 0x0f, 0x0f, 0x0f, 0x00,
   0x0f, 0x0f, 0x0f, 0x0f, 0x0f, 0x0f, 0x0f, 0x00, 0x0f, 0x0f, 0x0f, 0x0f,
   0x0f, 0x0f, 0x0f, 0x00, 0x0f, 0x0f, 0x0f, 0x0f, 0x0f, 0x0f, 0x0f, 0x00,
   0x0f, 0x0f, 0x0f, 0x0f, 0x0f, 0x0f, 0x0f, 0x00, 0x0f, 0x0f, 0x0f, 0x0f,
   0x0f, 0x0f, 0x0f, 0x00, 0x0f, 0x0f, 0x0f, 0x0f, 0x0f, 0x0f, 0x0f, 0x00,
   0x0f, 0x0f, 0x0f, 0x0f, 0x0f, 0x0f, 0x0f, 0x00, 0x0f, 0x0f, 0x0f, 0x0f,
   0x0f, 0x0f, 0x0f, 0x00, 0x0f, 0x0f, 0x0f, 0x0f, 0x0f, 0x0f, 0x0f, 0x00,
   0x0f, 0x0f, 0x0f, 0x0f, 0x0f, 0x0f, 0x0f, 0x00, 0x0f, 0x0f, 0x0f, 0x0f,
   0x0f, 0x0f, 0x0f, 0x00, 0x0f, 0x0f, 0x0f, 0x0f, 0x0f, 0x0f, 0x0f, 0x00,
   0x0f, 0x0f, 0x0f, 0x0f, 0x0f, 0x0f, 0x0f, 0x00, 0x0f, 0x0f, 0x0f, 0x0f,
   0x0f, 0x0f, 0x0f, 0x00, 0x0f, 0x0f, 0x0f, 0x0f, 0x0f, 0x0f, 0x0f, 0x00,
   0x0f, 0x0f, 0x0f, 0x0f, 0x0f, 0x0f, 0x0f, 0x00, 0x0f, 0x0f, 0x0f, 0x0f,
   0x0f, 0x0f, 0x0f, 0x00, 0x00, 0x00, 0x00, 0x00, 0x00, 0x00, 0x00, 0x00,
   0x02, 0x02, 0x02, 0x02, 0x02, 0x00, 0x02, 0x00, 0x05, 0x05, 0x05, 0x00,
   0x00, 0x00, 0x00, 0x00, 0x05, 0x05, 0x0f, 0x05, 0x0f, 0x05, 0x05, 0x00,
   0x02, 0x0f, 0x01, 0x0f, 0x08, 0x0f, 0x04, 0x00, 0x0b, 0x0b, 0x08, 0x06,
   0x01, 0x0d, 0x0d, 0x00, 0x03, 0x05, 0x02, 0x05, 0x0d, 0x05, 0x0b, 0x00,
   0x04, 0x04, 0x06, 0x00, 0x00, 0x00, 0x00, 0x00, 0x04, 0x02, 0x02, 0x02,
   0x02, 0x02, 0x04, 0x00, 0x02, 0x04, 0x04, 0x04, 0x04, 0x04, 0x02, 0x00,
   0x00, 0x09, 0x06, 0x0f, 0x06, 0x09, 0x00, 0x00, 0x00, 0x02, 0x02, 0x07,
   0x02, 0x02, 0x00, 0x00, 0x00, 0x00, 0x00, 0x00, 0x04, 0x04, 0x06, 0x00,
   0x00, 0x00, 0x00, 0x0f, 0x00, 0x00, 0x00, 0x00, 0x00, 0x00, 0x00, 0x00,
   0x00, 0x00, 0x02, 0x00, 0x08, 0x08, 0x04, 0x06, 0x02, 0x01, 0x01, 0x00,
   0x0f, 0x09, 0x09, 0x09, 0x09, 0x09, 0x0f, 0x00, 0x06, 0x04, 0x04, 0x04,
   0x04, 0x04, 0x0f, 0x00, 0x0f, 0x09, 0x08, 0x0f, 0x01, 0x09, 0x0f, 0x00,
   0x0f, 0x08, 0x08, 0x0f, 0x08, 0x08, 0x0f, 0x00, 0x09, 0x09, 0x09, 0x0f,
   0x08, 0x08, 0x08, 0x00, 0x0f, 0x09, 0x01, 0x0f, 0x08, 0x09, 0x0f, 0x00,
   0x03, 0x01, 0x01, 0x0f, 0x09, 0x09, 0x0f, 0x00, 0x0f, 0x09, 0x09, 0x0c,
   0x04, 0x04, 0x04, 0x00, 0x0f, 0x09, 0x09, 0x0f, 0x09, 0x09, 0x0f, 0x00,
   0x0f, 0x09, 0x09, 0x0f, 0x08, 0x08, 0x08, 0x00, 0x00, 0x02, 0x00, 0x00,
   0x00, 0x02, 0x00, 0x00, 0x00, 0x04, 0x00, 0x00, 0x04, 0x04, 0x06, 0x00,
   0x08, 0x04, 0x02, 0x01, 0x02, 0x04, 0x08, 0x00, 0x00, 0x00, 0x0f, 0x00,
   0x0f, 0x00, 0x00, 0x00, 0x01, 0x02, 0x04, 0x08, 0x04, 0x02, 0x01, 0x00,
   0x0f, 0x09, 0x08, 0x0e, 0x02, 0x00, 0x02, 0x00, 0x0f, 0x09, 0x0d, 0x0d,
   0x0d, 0x01, 0x0f, 0x00, 0x0f, 0x09, 0x09, 0x0f, 0x09, 0x09, 0x09, 0x00,
   0x07, 0x09, 0x09, 0x07, 0x09, 0x09, 0x07, 0x00, 0x0f, 0x01, 0x01, 0x01,
   0x01, 0x01, 0x0f, 0x00, 0x07, 0x09, 0x09, 0x09, 0x09, 0x09, 0x07, 0x00,
   0x0f, 0x01, 0x01, 0x0f, 0x01, 0x01, 0x0f, 0x00, 0x0f, 0x01, 0x01, 0x0f,
   0x01, 0x01, 0x01, 0x00, 0x0f, 0x01, 0x01, 0x0d, 0x09, 0x09, 0x0f, 0x00,
   0x09, 0x09, 0x09, 0x0f, 0x09, 0x09, 0x09, 0x00, 0x07, 0x02, 0x02, 0x02,
   0x02, 0x02, 0x07, 0x00, 0x0e, 0x04, 0x04, 0x04, 0x04, 0x05, 0x07, 0x00,
   0x09, 0x09, 0x09, 0x07, 0x09, 0x09, 0x09, 0x00, 0x01, 0x01, 0x01, 0x01,
   0x01, 0x01, 0x0f, 0x00, 0x09, 0x0f, 0x0f, 0x0f, 0x09, 0x09, 0x09, 0x00,
   0x09, 0x0b, 0x0d, 0x09, 0x09, 0x09, 0x09, 0x00, 0x0f, 0x09, 0x09, 0x09,
   0x09, 0x09, 0x0f, 0x00, 0x0f, 0x09, 0x09, 0x0f, 0x01, 0x01, 0x01, 0x00,
   0x0f, 0x09, 0x09, 0x09, 0x0b, 0x05, 0x0b, 0x00, 0x07, 0x09, 0x09, 0x07,
   0x09, 0x09, 0x09, 0x00, 0x0f, 0x01, 0x01, 0x0f, 0x08, 0x08, 0x0f, 0x00,
   0x0f, 0x02, 0x02, 0x02, 0x02, 0x02, 0x02, 0x00, 0x09, 0x09, 0x09, 0x09,
   0x09, 0x09, 0x0f, 0x00, 0x09, 0x09, 0x09, 0x09, 0x09, 0x05, 0x02, 0x00,
   0x09, 0x09, 0x09, 0x09, 0x0f, 0x0f, 0x09, 0x00, 0x09, 0x09, 0x05, 0x06,
   0x0a, 0x09, 0x09, 0x00, 0x09, 0x09, 0x09, 0x0f, 0x08, 0x08, 0x0f, 0x00,
   0x0f, 0x08, 0x08, 0x06, 0x01, 0x01, 0x0f, 0x00, 0x0e, 0x02, 0x02, 0x02,
   0x02, 0x02, 0x0e, 0x00, 0x01, 0x01, 0x02, 0x06, 0x04, 0x08, 0x08, 0x00,
   0x07, 0x04, 0x04, 0x04, 0x04, 0x04, 0x07, 0x00, 0x02, 0x05, 0x05, 0x00,
   0x00, 0x00, 0x00, 0x00, 0x00, 0x00, 0x00, 0x00, 0x00, 0x00, 0x0f, 0x00,
   0x02, 0x02, 0x06, 0x00, 0x00, 0x00, 0x00, 0x00, 0x00, 0x00, 0x0f, 0x08,
   0x0f, 0x09, 0x0f, 0x00, 0x01, 0x01, 0x0f, 0x09, 0x09, 0x09, 0x0f, 0x00,
   0x00, 0x00, 0x0f, 0x01, 0x01, 0x01, 0x0f, 0x00, 0x08, 0x08, 0x0f, 0x09,
   0x09, 0x09, 0x0f, 0x00, 0x00, 0x00, 0x0f, 0x09, 0x0f, 0x01, 0x0f, 0x00,
   0x0e, 0x02, 0x0f, 0x02, 0x02, 0x02, 0x02, 0x00, 0x00, 0x00, 0x0f, 0x09,
   0x09, 0x0f, 0x08, 0x0c, 0x01, 0x01, 0x0f, 0x09, 0x09, 0x09, 0x09, 0x00,
   0x02, 0x00, 0x03, 0x02, 0x02, 0x02, 0x07, 0x00, 0x04, 0x00, 0x04, 0x04,
   0x04, 0x04, 0x05, 0x07, 0x01, 0x01, 0x09, 0x05, 0x03, 0x05, 0x09, 0x00,
   0x03, 0x02, 0x02, 0x02, 0x02, 0x02, 0x07, 0x00, 0x00, 0x00, 0x09, 0x0f,
   0x0f, 0x09, 0x09, 0x00, 0x00, 0x00, 0x0f, 0x09, 0x09, 0x09, 0x09, 0x00,
   0x00, 0x00, 0x0f, 0x09, 0x09, 0x09, 0x0f, 0x00, 0x00, 0x00, 0x0f, 0x09,
   0x09, 0x0f, 0x01, 0x01, 0x00, 0x00, 0x0f, 0x09, 0x09, 0x0f, 0x08, 0x08,
   0x00, 0x00, 0x0f, 0x01, 0x01, 0x01, 0x01, 0x00, 0x00, 0x00, 0x0f, 0x01,
   0x0f, 0x08, 0x0f, 0x00, 0x00, 0x02, 0x0f, 0x02, 0x02, 0x02, 0x0e, 0x00,
   0x00, 0x00, 0x09, 0x09, 0x09, 0x09, 0x0f, 0x00, 0x00, 0x00, 0x09, 0x09,
   0x09, 0x05, 0x02, 0x00, 0x00, 0x00, 0x09, 0x09, 0x0f, 0x0f, 0x09, 0x00,
   0x00, 0x00, 0x09, 0x09, 0x06, 0x09, 0x09, 0x00, 0x00, 0x00, 0x09, 0x09,
   0x09, 0x0f, 0x08, 0x0c, 0x00, 0x00, 0x0f, 0x08, 0x06, 0x01, 0x0f, 0x00,
   0x08, 0x04, 0x04, 0x02, 0x04, 0x04, 0x08, 0x00, 0x02, 0x02, 0x02, 0x02,
   0x02, 0x02, 0x02, 0x00, 0x01, 0x02, 0x02, 0x04, 0x02, 0x02, 0x01, 0x00,
   0x00, 0x0a, 0x05, 0x00, 0x00, 0x00, 0x00, 0x00, 0x0f, 0x0f, 0x0f, 0x0f,
   0x0f, 0x0f, 0x0f, 0x00 };
